<svg width="126" height="48" viewBox="0 0 126 48" fill="none" xmlns="http://www.w3.org/2000/svg">
<g clip-path="url(#clip0_11300_6109)">
<path d="M62.36 40.59C62.36 40.41 62.19 40.26 61.98 40.26C61.77 40.26 61.61 40.41 61.61 40.59C61.61 40.77 61.77 40.92 61.98 40.92C62.19 40.92 62.36 40.77 62.36 40.59ZM62.96 45.6C62.5 45.6 62.34 45.41 62.34 45.11V42.21H62.21L61.09 42.6V42.73L61.49 42.81C61.72 42.85 61.76 42.89 61.76 43.23V44.96C61.76 45.42 61.57 45.59 61.04 45.59V45.76H62.96V45.59V45.6ZM65.09 45.6C64.62 45.6 64.51 45.49 64.51 45.01V43.14C64.96 42.83 65.38 42.59 65.66 42.59C66.01 42.59 66.34 42.8 66.34 43.49C66.34 44.64 66.32 45.27 66.16 45.43C66.06 45.52 65.92 45.58 65.67 45.59V45.76H67.52V45.59H67.33C66.98 45.59 66.84 45.48 66.85 45.25C66.85 45.15 66.86 45.06 66.87 44.95C66.89 44.7 66.92 44.35 66.92 43.55C66.92 42.69 66.58 42.26 66 42.26C65.6 42.26 65.15 42.54 64.62 42.88L64.52 42.95V42.28H64.38L63.39 42.64V42.78L63.68 42.84C63.9 42.88 63.94 42.94 63.94 43.26V45.07C63.94 45.4 63.74 45.61 63.36 45.61V45.78H65.1V45.62L65.09 45.6ZM68.74 47.77C69.82 47.77 70.53 46.6 70.53 44.87V41.18C70.53 40.72 70.65 40.57 71.21 40.55V40.38H69.02V40.55H69.12C69.74 40.55 69.82 40.72 69.82 41.48V46.09C69.82 47.05 69.53 47.36 69.11 47.36C68.92 47.36 68.76 47.25 68.62 47.14C68.49 47.04 68.36 46.95 68.22 46.95C68.05 46.95 67.91 47.12 67.91 47.29C67.91 47.56 68.27 47.76 68.75 47.76M72.03 43.64V43.57H74.56V43.37C74.48 43.29 74.43 43.18 74.37 43.05C74.2 42.7 73.99 42.24 73.14 42.24C72.09 42.24 71.47 43.17 71.47 44.09C71.47 45.09 72.13 45.86 72.97 45.86C73.6 45.86 74.15 45.43 74.51 44.97L74.42 44.87C74.09 45.26 73.75 45.43 73.32 45.43C72.64 45.43 72.01 44.82 72.01 43.93C72.01 43.84 72.02 43.74 72.03 43.64ZM72.98 42.41C73.39 42.41 73.74 42.78 73.83 43.34H72.06C72.26 42.54 72.69 42.41 72.98 42.41ZM76.15 45.7C75.76 45.7 75.43 45.41 75.33 44.89H75.19L75.29 45.86H75.42C75.46 45.79 75.52 45.76 75.57 45.76C75.62 45.76 75.68 45.77 75.74 45.79L75.8 45.81C75.89 45.85 76.01 45.87 76.18 45.87C76.78 45.87 77.25 45.45 77.25 44.89C77.25 44.33 76.78 44.02 76.35 43.74C75.98 43.51 75.64 43.29 75.64 42.94C75.64 42.66 75.88 42.46 76.17 42.46C76.52 42.46 76.8 42.74 76.86 43.18H77.01L76.99 42.39C76.77 42.3 76.54 42.25 76.3 42.25C75.64 42.25 75.19 42.65 75.19 43.22C75.19 43.68 75.48 43.87 75.85 44.11C76.05 44.24 76.27 44.39 76.49 44.6C76.72 44.83 76.77 44.95 76.77 45.13C76.77 45.44 76.51 45.7 76.16 45.7M80.5 45.87L81.66 45.52V45.37L81.48 45.4C81.17 45.46 81.08 45.42 81.08 45.18V42.27L79.75 42.47V42.59L80.18 42.67C80.46 42.72 80.5 42.79 80.5 43.13V44.99C80.14 45.28 79.77 45.46 79.47 45.46C79.08 45.46 78.69 45.22 78.69 44.68V42.27L77.58 42.51V42.64L77.88 42.73C78.06 42.78 78.11 42.88 78.11 43.08V45C78.11 45.59 78.6 45.88 79.03 45.88C79.38 45.88 79.85 45.66 80.5 45.19V45.88V45.87ZM83.17 45.7C82.78 45.7 82.45 45.41 82.35 44.89H82.21L82.3 45.86H82.43C82.47 45.79 82.52 45.76 82.58 45.76C82.63 45.76 82.69 45.77 82.75 45.79L82.81 45.81C82.91 45.85 83.03 45.87 83.19 45.87C83.79 45.87 84.26 45.45 84.26 44.89C84.26 44.33 83.79 44.02 83.36 43.74C82.99 43.51 82.66 43.29 82.66 42.94C82.66 42.66 82.9 42.46 83.19 42.46C83.54 42.46 83.82 42.74 83.88 43.18H84.03L84.01 42.39C83.79 42.3 83.56 42.25 83.32 42.25C82.66 42.25 82.21 42.65 82.21 43.22C82.21 43.69 82.5 43.87 82.87 44.12C83.07 44.25 83.29 44.4 83.51 44.61C83.74 44.84 83.79 44.96 83.79 45.14C83.79 45.45 83.52 45.71 83.18 45.71M85.06 41.35C85.06 41.66 84.83 41.96 84.39 42.21L84.45 42.36C85.02 42.14 85.41 41.63 85.41 41.09C85.41 40.68 85.15 40.38 84.81 40.38C84.55 40.38 84.34 40.57 84.34 40.8C84.34 41.03 84.51 41.19 84.73 41.19C84.78 41.19 84.81 41.19 84.84 41.18C84.87 41.18 84.9 41.17 84.93 41.17C85.02 41.17 85.05 41.25 85.05 41.35M88.48 45.6C88.01 45.6 87.9 45.49 87.9 45.01V43.14C88.35 42.83 88.78 42.59 89.05 42.59C89.4 42.59 89.73 42.8 89.73 43.49C89.73 44.64 89.71 45.27 89.55 45.43C89.45 45.52 89.31 45.58 89.06 45.59V45.76H90.92V45.59H90.73C90.38 45.59 90.24 45.48 90.24 45.25C90.24 45.15 90.25 45.06 90.26 44.95C90.28 44.7 90.31 44.35 90.31 43.55C90.31 42.69 89.98 42.26 89.39 42.26C88.99 42.26 88.54 42.54 88 42.88L87.9 42.94V42.27H87.76L86.77 42.63V42.77L87.06 42.83C87.28 42.87 87.32 42.93 87.32 43.25V45.06C87.32 45.39 87.12 45.6 86.74 45.6V45.77H88.47V45.61L88.48 45.6ZM91.38 43.25C91.38 43.25 91.38 43.33 91.4 43.37L91.99 43.09C91.96 43.04 91.95 42.98 91.95 42.92C91.95 42.74 92.2 42.5 92.49 42.5C92.68 42.5 92.86 42.6 92.97 42.75C93.12 42.92 93.12 43.06 93.12 43.3V43.98C92.88 44.12 92.62 44.23 92.35 44.31C91.8 44.45 91.33 44.63 91.33 45.16C91.33 45.58 91.63 45.87 92.13 45.87C92.36 45.87 92.54 45.84 93.13 45.34C93.13 45.48 93.17 45.87 93.53 45.87C93.68 45.87 93.92 45.77 94.38 45.4L94.34 45.27C94.12 45.45 94.01 45.46 93.91 45.46C93.69 45.46 93.69 45.3 93.69 44.61V43.45C93.69 43 93.69 42.89 93.56 42.71C93.32 42.38 92.91 42.25 92.65 42.25C92.09 42.25 91.37 42.95 91.37 43.25M92.6 44.4C92.78 44.33 92.95 44.25 93.11 44.16V45.19C92.63 45.53 92.52 45.57 92.38 45.57C92.1 45.57 91.87 45.35 91.87 45.07C91.87 44.72 92.07 44.63 92.59 44.41M96.41 45.6C95.93 45.6 95.81 45.51 95.81 45.07V43.1C96.4 42.71 96.73 42.6 96.97 42.6C97.27 42.6 97.61 42.8 97.61 43.34V44.94C97.61 45.43 97.44 45.61 96.95 45.61V45.78H98.72V45.61C98.29 45.61 98.19 45.51 98.19 45.08V43.09C98.73 42.74 99.07 42.61 99.34 42.61C99.76 42.61 99.99 42.93 99.99 43.6V44.27C99.99 44.87 99.98 45.37 99.85 45.5C99.77 45.58 99.66 45.62 99.41 45.62H99.33V45.79H101.27V45.62H100.99C100.63 45.62 100.53 45.41 100.53 45.23C100.56 44.7 100.56 44.13 100.56 43.57C100.56 42.74 100.32 42.26 99.7 42.26C99.28 42.26 98.75 42.59 98.17 42.95C98.08 42.53 97.77 42.26 97.35 42.26C97 42.26 96.43 42.51 95.81 42.95V42.26H95.68L94.64 42.62V42.77L94.98 42.81C95.18 42.84 95.23 42.91 95.23 43.25V44.94C95.23 45.38 95.12 45.6 94.62 45.6V45.77H96.42V45.61L96.41 45.6ZM102.08 43.66V43.56H104.61V43.36C104.53 43.28 104.48 43.17 104.42 43.04C104.25 42.69 104.04 42.23 103.19 42.23C102.14 42.23 101.52 43.16 101.52 44.08C101.52 45.08 102.18 45.85 103.02 45.85C103.65 45.85 104.19 45.42 104.56 44.96L104.47 44.86C104.14 45.25 103.8 45.42 103.37 45.42C102.69 45.42 102.06 44.81 102.06 43.92C102.06 43.84 102.07 43.75 102.08 43.65M103.04 42.41C103.45 42.41 103.8 42.78 103.9 43.34H102.13C102.33 42.54 102.76 42.41 103.05 42.41M26.49 24.31C26.17 24.31 26.04 24.22 26.04 23.89V22.93H26.07C26.15 22.93 26.22 22.94 26.33 22.94C26.45 22.94 26.53 22.94 26.63 22.94H26.71C26.85 23.03 27.04 23.19 27.29 23.44L27.66 23.81C28.16 24.31 28.42 24.53 29.41 24.48V24.38C28.97 24.35 28.63 24.14 28.3 23.81L27.86 23.37C27.66 23.16 27.44 22.97 27.21 22.78C27.67 22.64 27.96 22.29 27.96 21.86C27.96 21.28 27.49 20.86 26.45 20.86C26.08 20.86 25.97 20.86 25.74 20.87H25.55C25.35 20.89 25.13 20.9 25.03 20.9V21.01H25.15C25.48 21.01 25.57 21.11 25.57 21.46V23.84C25.57 24.22 25.45 24.31 25.12 24.31H25.02V24.42H26.62V24.31H26.49ZM26.32 22.84C26.23 22.84 26.15 22.84 26.04 22.83V20.98C26.14 20.97 26.21 20.97 26.32 20.97C27.19 20.97 27.43 21.38 27.43 21.9C27.43 22.58 27.02 22.84 26.39 22.84H26.32ZM29.77 23.04V22.99H31.43V22.86C31.43 22.86 31.35 22.74 31.31 22.65C31.2 22.42 31.06 22.12 30.5 22.12C29.81 22.12 29.41 22.73 29.41 23.33C29.41 23.99 29.84 24.49 30.4 24.49C30.81 24.49 31.17 24.21 31.4 23.91L31.34 23.84C31.13 24.09 30.91 24.21 30.62 24.21C30.18 24.21 29.76 23.81 29.76 23.22C29.76 23.16 29.76 23.1 29.78 23.04M30.39 22.23C30.66 22.23 30.89 22.47 30.95 22.84H29.79C29.92 22.31 30.2 22.23 30.39 22.23ZM32.66 24.31C32.44 24.31 32.33 24.2 32.33 23.97V20.62H32.25L31.53 20.85V20.95L31.79 20.98C31.95 21 31.96 21.05 31.96 21.21V23.94C31.96 24.21 31.85 24.32 31.49 24.32V24.42H32.76V24.31H32.67H32.66ZM33.29 23L34.94 22.99V22.86C34.89 22.8 34.85 22.73 34.82 22.65C34.71 22.42 34.57 22.12 34.01 22.12C33.32 22.12 32.92 22.73 32.92 23.33C32.92 23.99 33.35 24.49 33.9 24.49C34.31 24.49 34.67 24.21 34.91 23.91L34.85 23.84C34.64 24.09 34.42 24.21 34.14 24.21C33.69 24.21 33.28 23.81 33.28 23.22C33.28 23.15 33.29 23.08 33.3 23M33.91 22.23C34.18 22.23 34.41 22.47 34.47 22.84H33.31C33.44 22.31 33.72 22.23 33.91 22.23ZM35.37 22.83V22.85L35.76 22.66C35.74 22.63 35.73 22.59 35.73 22.55C35.73 22.43 35.89 22.27 36.08 22.27C36.2 22.27 36.32 22.34 36.39 22.44C36.49 22.55 36.49 22.64 36.49 22.8V23.25C36.33 23.35 36.16 23.42 35.98 23.46C35.62 23.55 35.32 23.67 35.32 24.01C35.32 24.29 35.52 24.47 35.84 24.47C35.99 24.47 36.11 24.45 36.49 24.13C36.49 24.22 36.52 24.47 36.75 24.47C36.85 24.47 37 24.41 37.31 24.16L37.28 24.08C37.14 24.2 37.07 24.2 37 24.2C36.85 24.2 36.85 24.1 36.85 23.65V22.89C36.85 22.6 36.85 22.52 36.76 22.4C36.62 22.21 36.4 22.1 36.17 22.1C35.8 22.1 35.33 22.56 35.33 22.76C35.33 22.78 35.33 22.8 35.33 22.82M36.16 23.53C36.3 23.47 36.39 23.43 36.49 23.37V24.04C36.17 24.26 36.11 24.29 36.02 24.29C35.84 24.29 35.69 24.15 35.69 23.96C35.69 23.73 35.82 23.67 36.16 23.53ZM38.25 24.38C37.99 24.38 37.78 24.19 37.71 23.85H37.62L37.68 24.48H37.76C37.76 24.48 37.82 24.41 37.86 24.41C37.89 24.41 37.93 24.42 37.97 24.43H38.01C38.09 24.47 38.17 24.48 38.26 24.48C38.65 24.48 38.96 24.2 38.96 23.83C38.96 23.46 38.65 23.26 38.37 23.08C38.13 22.93 37.91 22.79 37.91 22.56C37.91 22.37 38.07 22.24 38.26 22.24C38.49 22.24 38.67 22.42 38.71 22.71H38.81V22.2C38.65 22.14 38.5 22.11 38.35 22.11C37.92 22.11 37.63 22.37 37.63 22.74C37.63 23.04 37.82 23.17 38.06 23.33C38.19 23.42 38.34 23.51 38.48 23.65C38.63 23.8 38.66 23.88 38.66 23.99C38.66 24.19 38.48 24.36 38.26 24.36M40.11 21.03C40.11 20.91 40 20.82 39.86 20.82C39.72 20.82 39.61 20.92 39.61 21.03C39.61 21.14 39.72 21.24 39.86 21.24C40 21.24 40.11 21.14 40.11 21.03ZM40.5 24.31C40.2 24.31 40.09 24.19 40.09 23.99V22.09H40.01L39.28 22.34V22.43L39.54 22.48C39.69 22.51 39.71 22.54 39.71 22.76V23.89C39.71 24.19 39.59 24.3 39.24 24.3V24.41H40.5V24.3V24.31ZM41.97 24.31C41.66 24.31 41.59 24.24 41.59 23.93V22.7C41.88 22.5 42.16 22.34 42.34 22.34C42.56 22.34 42.78 22.48 42.78 22.93C42.78 23.68 42.78 24.09 42.66 24.2C42.6 24.26 42.5 24.3 42.34 24.31V24.41H43.55V24.3H43.43C43.2 24.3 43.11 24.23 43.12 24.07C43.12 24 43.12 23.94 43.13 23.86C43.15 23.56 43.17 23.25 43.16 22.95C43.16 22.38 42.94 22.1 42.56 22.1C42.3 22.1 42 22.29 41.65 22.51L41.59 22.55V22.11H41.5L40.85 22.35V22.44L41.04 22.48C41.19 22.51 41.21 22.55 41.21 22.75V23.94C41.21 24.16 41.08 24.3 40.83 24.3V24.41H41.96V24.3L41.97 24.31ZM45.73 22.58C45.95 22.62 46.21 22.64 46.3 22.65V22.29C46.05 22.32 45.82 22.35 45.56 22.35C45.41 22.2 45.19 22.12 44.93 22.12C44.37 22.12 43.94 22.5 43.94 22.99C43.94 23.31 44.14 23.55 44.48 23.69C44.41 23.74 44.32 23.77 44.24 23.81C44.07 23.88 43.91 23.94 43.91 24.11C43.91 24.28 44.14 24.48 44.45 24.51C44.35 24.63 44.24 24.71 44.14 24.79C43.98 24.91 43.85 25.01 43.85 25.21C43.85 25.48 44.13 25.75 44.72 25.75C45.76 25.75 46.26 25.19 46.26 24.82C46.26 24.67 46.2 24.53 46.09 24.43C45.92 24.26 45.7 24.23 45.06 24.23C44.49 24.23 44.25 24.17 44.25 24.03C44.25 23.95 44.35 23.9 44.44 23.84C44.5 23.81 44.55 23.78 44.59 23.74C44.67 23.77 44.76 23.79 44.85 23.79C45.48 23.79 45.84 23.39 45.84 22.97C45.84 22.84 45.81 22.72 45.74 22.61M45.95 24.91C45.95 25.26 45.5 25.58 45.02 25.58C44.55 25.58 44.18 25.28 44.18 25.01C44.18 24.86 44.28 24.78 44.39 24.68C44.45 24.63 44.5 24.58 44.55 24.52C44.64 24.53 44.88 24.54 45.11 24.55C45.31 24.55 45.5 24.56 45.57 24.57C45.77 24.59 45.95 24.69 45.95 24.9M44.31 22.87C44.31 22.35 44.64 22.23 44.86 22.23C45.21 22.23 45.45 22.51 45.45 22.99C45.45 23.38 45.24 23.65 44.91 23.65C44.48 23.65 44.31 23.2 44.31 22.87ZM49.06 24.49C49.51 24.49 49.82 24.28 50.06 23.9L49.98 23.85C49.78 24.13 49.56 24.26 49.29 24.26C48.83 24.26 48.49 23.84 48.49 23.28C48.49 22.72 48.83 22.28 49.22 22.28C49.38 22.28 49.48 22.37 49.57 22.46C49.66 22.54 49.74 22.62 49.88 22.62C49.97 22.62 50.04 22.54 50.04 22.45C50.04 22.27 49.76 22.13 49.41 22.13C48.7 22.13 48.12 22.7 48.11 23.41C48.11 23.86 48.38 24.5 49.06 24.5M51.54 24.31C51.24 24.31 51.17 24.24 51.17 23.97V22.61C51.45 22.44 51.65 22.35 51.84 22.35C52.03 22.35 52.35 22.43 52.35 23.03C52.35 23.87 52.33 24.12 52.23 24.22C52.17 24.28 52.06 24.31 51.92 24.31V24.42H53.14V24.31C52.81 24.31 52.72 24.25 52.71 24.09C52.73 23.71 52.74 23.33 52.74 22.95C52.74 22.38 52.55 22.11 52.11 22.11C51.82 22.11 51.55 22.25 51.18 22.47V20.62H51.09L50.42 20.85V20.95L50.66 20.98C50.78 21 50.8 21.04 50.8 21.17V23.88C50.8 24.19 50.73 24.3 50.41 24.32V24.43H51.54V24.32V24.31ZM54.1 21.03C54.1 20.91 53.99 20.82 53.85 20.82C53.71 20.82 53.6 20.92 53.6 21.03C53.6 21.14 53.71 21.24 53.85 21.24C53.99 21.24 54.1 21.14 54.1 21.03ZM54.49 24.31C54.19 24.31 54.08 24.19 54.08 23.99V22.09H54L53.27 22.34V22.43L53.54 22.48C53.69 22.51 53.71 22.54 53.71 22.76V23.89C53.71 24.19 53.59 24.3 53.24 24.3V24.41H54.5V24.3L54.49 24.31ZM55.81 24.31C55.59 24.31 55.48 24.2 55.48 23.97V20.62H55.39L54.67 20.85V20.95L54.93 20.98C55.09 21 55.1 21.05 55.1 21.21V23.94C55.1 24.21 54.99 24.32 54.63 24.32V24.42H55.9V24.31H55.8H55.81ZM57.68 20.97C57.86 20.99 57.9 21.02 57.9 21.13V22.23C57.72 22.16 57.54 22.13 57.35 22.12C56.66 22.12 56.11 22.69 56.12 23.38C56.12 23.38 56.12 23.39 56.12 23.4C56.12 24 56.52 24.49 57.02 24.49C57.24 24.49 57.53 24.36 57.9 24.09V24.49H57.97L58.69 24.21V24.09L58.56 24.13C58.4 24.17 58.28 24.13 58.28 23.94V20.62L57.5 20.85V20.94L57.68 20.96V20.97ZM57.23 22.27C57.5 22.27 57.7 22.39 57.9 22.7V23.96C57.65 24.14 57.41 24.24 57.23 24.24C56.82 24.24 56.5 23.77 56.5 23.2C56.5 22.67 56.79 22.27 57.23 22.27ZM60.13 24.31C59.85 24.31 59.76 24.24 59.76 24V22.9C59.81 22.81 59.87 22.72 59.94 22.62C60 22.54 60.06 22.47 60.16 22.47C60.23 22.47 60.3 22.49 60.36 22.53C60.46 22.58 60.56 22.61 60.66 22.62L60.8 22.28L60.71 22.26C60.64 22.24 60.57 22.22 60.5 22.2C60.4 22.16 60.38 22.15 60.31 22.15C60.12 22.15 60.06 22.26 59.77 22.72V22.12H59.66L59.01 22.34V22.44L59.39 22.58V23.89C59.39 24.19 59.3 24.31 59.01 24.31V24.42H60.35V24.31H60.14H60.13ZM61.38 23L63.03 22.99V22.86C62.98 22.8 62.94 22.73 62.91 22.65C62.8 22.42 62.66 22.12 62.1 22.12C61.41 22.12 61.01 22.73 61.01 23.33C61.01 23.99 61.44 24.49 62 24.49C62.41 24.49 62.77 24.21 63 23.91L62.94 23.84C62.73 24.09 62.51 24.21 62.23 24.21C61.78 24.21 61.37 23.81 61.37 23.22C61.37 23.15 61.38 23.08 61.39 23M62 22.23C62.27 22.23 62.5 22.47 62.56 22.84H61.4C61.53 22.31 61.81 22.23 62 22.23ZM64.42 24.31C64.12 24.31 64.04 24.24 64.04 23.93V22.7C64.33 22.5 64.61 22.34 64.79 22.34C65.01 22.34 65.24 22.48 65.24 22.93C65.24 23.68 65.23 24.09 65.12 24.2C65.06 24.26 64.96 24.3 64.8 24.31V24.41H66.01V24.3H65.89C65.66 24.3 65.57 24.23 65.57 24.07C65.57 24 65.57 23.94 65.58 23.87C65.59 23.7 65.61 23.47 65.61 22.95C65.61 22.38 65.39 22.1 65 22.1C64.74 22.1 64.43 22.29 64.08 22.52L64.03 22.55V22.11H63.94L63.29 22.35V22.44L63.48 22.48C63.63 22.51 63.65 22.55 63.65 22.75V23.94C63.65 24.16 63.52 24.3 63.27 24.3V24.41H64.4V24.3L64.42 24.31ZM68.46 22.43H69.07L69.03 22.18H68.46V21.75C68.46 21.2 68.68 20.88 69.09 20.88C69.34 20.88 69.52 21.01 69.63 21.09C69.68 21.13 69.72 21.16 69.74 21.16C69.78 21.16 69.89 20.94 69.89 20.89C69.89 20.81 69.62 20.62 69.31 20.62C69.05 20.62 68.78 20.75 68.51 21.02C68.18 21.35 68.07 21.71 68.07 22.18C67.94 22.25 67.8 22.3 67.65 22.33V22.43H68.07V23.92C68.07 24.24 68.01 24.31 67.69 24.31V24.42H69.09V24.31H68.88C68.56 24.31 68.46 24.24 68.46 23.98V22.43Z" fill="black"/>
<path d="M70.61 24.31C70.33 24.31 70.24 24.24 70.24 24V22.9C70.29 22.81 70.35 22.72 70.42 22.62C70.48 22.54 70.54 22.47 70.64 22.47C70.71 22.47 70.78 22.49 70.84 22.53C70.94 22.58 71.04 22.61 71.14 22.62L71.28 22.28L71.2 22.26C71.1 22.24 71.03 22.21 70.99 22.19C70.89 22.15 70.87 22.14 70.81 22.14C70.62 22.14 70.55 22.25 70.27 22.71H70.26V22.11H70.15L69.51 22.33V22.43L69.89 22.57V23.88C69.89 24.18 69.8 24.3 69.51 24.3V24.41H70.85V24.3H70.64L70.61 24.31ZM73.75 23.3C73.75 22.63 73.22 22.11 72.54 22.11C71.95 22.11 71.32 22.53 71.32 23.31C71.32 23.97 71.86 24.48 72.56 24.48C73.26 24.48 73.76 23.97 73.76 23.3M73.32 23.45C73.32 24.01 72.94 24.35 72.61 24.35C72.12 24.35 71.74 23.8 71.74 23.12C71.74 22.63 72.09 22.25 72.45 22.25C72.93 22.25 73.32 22.8 73.32 23.44M75.21 24.31C74.89 24.31 74.82 24.25 74.82 23.96V22.67C75.21 22.42 75.42 22.34 75.58 22.34C75.78 22.34 76 22.47 76 22.83V23.87C76 24.19 75.89 24.31 75.57 24.31V24.42H76.73V24.31C76.45 24.31 76.38 24.24 76.38 23.96V22.66C76.73 22.43 76.96 22.34 77.13 22.34C77.41 22.34 77.55 22.55 77.55 22.98V23.42C77.55 23.81 77.55 24.14 77.46 24.22C77.41 24.27 77.33 24.3 77.17 24.3H77.12V24.4H78.39V24.29H78.21C77.98 24.29 77.91 24.15 77.91 24.03C77.93 23.69 77.93 23.31 77.93 22.95C77.93 22.41 77.77 22.1 77.36 22.1C77.08 22.1 76.74 22.32 76.36 22.55C76.3 22.28 76.1 22.1 75.82 22.1C75.59 22.1 75.22 22.27 74.81 22.55V22.1H74.73L74.05 22.34V22.44L74.27 22.47C74.4 22.49 74.44 22.54 74.44 22.76V23.87C74.44 24.16 74.37 24.31 74.04 24.31V24.42H75.21V24.31ZM81.19 25.63C80.95 25.63 80.81 25.54 80.81 25.26V24.35C81.03 24.43 81.17 24.46 81.32 24.46C81.96 24.46 82.52 23.88 82.52 23.19C82.52 22.64 82.12 22.14 81.68 22.14C81.45 22.14 81.15 22.29 80.8 22.55V22.01H80.69L80.09 22.38V22.49L80.27 22.53C80.41 22.56 80.43 22.61 80.43 22.72V25.21C80.43 25.53 80.34 25.63 80.05 25.63H79.99V25.74H81.32V25.63H81.18H81.19ZM81.48 24.28C81.23 24.26 80.99 24.15 80.81 23.97V22.68C81.02 22.51 81.23 22.41 81.4 22.41C81.7 22.41 82.14 22.69 82.14 23.44C82.14 23.9 81.86 24.28 81.47 24.28M85.48 23.3C85.48 22.63 84.95 22.11 84.26 22.11C83.67 22.11 83.04 22.53 83.04 23.31C83.04 23.97 83.58 24.48 84.28 24.48C84.98 24.48 85.48 23.97 85.48 23.3ZM85.06 23.45C85.06 24.01 84.68 24.35 84.35 24.35C83.86 24.35 83.48 23.8 83.48 23.12C83.48 22.63 83.83 22.25 84.2 22.25C84.67 22.25 85.07 22.8 85.07 23.44M85.97 22.59L86.79 24.47H86.96L87.74 22.7C87.85 22.45 87.97 22.33 88.19 22.29V22.19H87.2V22.29C87.61 22.32 87.67 22.48 87.56 22.71L86.98 24.02L86.38 22.61C86.24 22.35 86.35 22.3 86.7 22.29V22.19H85.55V22.29L85.73 22.32C85.82 22.34 85.89 22.41 85.98 22.6M88.69 23L90.34 22.99V22.86C90.29 22.81 90.26 22.74 90.22 22.65C90.11 22.42 89.97 22.12 89.41 22.12C88.72 22.12 88.32 22.73 88.32 23.33C88.32 23.99 88.75 24.49 89.3 24.49C89.71 24.49 90.07 24.21 90.3 23.91L90.24 23.84C90.03 24.09 89.81 24.21 89.53 24.21C89.08 24.21 88.67 23.81 88.67 23.22C88.67 23.15 88.67 23.08 88.69 23ZM89.31 22.23C89.58 22.23 89.81 22.47 89.87 22.84H88.71C88.84 22.31 89.12 22.23 89.31 22.23ZM91.88 24.31C91.6 24.31 91.51 24.24 91.51 24V22.9C91.56 22.8 91.62 22.71 91.69 22.62C91.75 22.54 91.81 22.47 91.91 22.47C91.98 22.47 92.05 22.49 92.11 22.53C92.21 22.58 92.3 22.61 92.41 22.62L92.55 22.28L92.48 22.26C92.4 22.24 92.33 22.22 92.26 22.19C92.16 22.15 92.14 22.14 92.08 22.14C91.89 22.14 91.83 22.25 91.54 22.71H91.53V22.11H91.42L90.78 22.33V22.43L91.16 22.57V23.88C91.16 24.18 91.07 24.3 90.78 24.3V24.41H92.12V24.3H91.91L91.88 24.31ZM94.24 22.43L94.33 22.18H93.52V21.62H93.42C93.29 21.97 93.1 22.23 92.88 22.34V22.43H93.14V23.83C93.14 24.21 93.38 24.49 93.71 24.49C93.97 24.49 94.19 24.32 94.32 24.03L94.23 23.94C94.12 24.12 94.01 24.22 93.88 24.22C93.75 24.22 93.51 24.1 93.51 23.74V22.42H94.23L94.24 22.43ZM96.21 22.28C96.54 22.29 96.65 22.38 96.48 22.8L96 24L95.36 22.62C95.25 22.38 95.29 22.28 95.63 22.28V22.18H94.5V22.28C94.74 22.28 94.84 22.38 94.95 22.61L95.82 24.47L95.65 24.9C95.6 25.01 95.52 25.16 95.46 25.22C95.4 25.27 95.32 25.31 95.24 25.32C95.11 25.36 94.99 25.39 94.99 25.53C94.99 25.64 95.09 25.73 95.22 25.73C95.42 25.73 95.55 25.54 95.72 25.13L96.68 22.74C96.79 22.47 96.92 22.31 97.15 22.29V22.19H96.22V22.29L96.21 22.28ZM17.12 25.24C16.17 22.56 13.68 20.8 10.53 20.8C5.70999 20.8 2.69999 24.3 2.69999 29.15C2.69999 34.38 6.45999 38.22 10.85 38.22C13.13 38.22 15.93 37.44 17.9 33.95H18.45C18 35.42 17.38 36.84 16.6 38.17C14.75 37.91 13.48 38.95 10.07 38.95C4.20999 38.95 -0.0100098 35.08 -0.0100098 29.73C-0.0100098 24.38 4.31999 20.08 10.36 20.08C14 20.08 15.56 21.24 16.45 21.24C16.77 21.24 16.91 21.15 16.97 21.07H17.4L17.66 25.26H17.11L17.12 25.24ZM26.07 38.12C27.77 38.12 29.71 36.39 29.71 33.5C29.71 30.21 27.69 27.41 25.26 27.41C23.35 27.41 21.59 29.37 21.59 31.86C21.59 35.36 23.59 38.13 26.07 38.13M25.67 26.71C29.19 26.71 31.88 29.34 31.88 32.77C31.88 36.2 29.2 38.8 25.76 38.8C22.32 38.8 19.43 36.2 19.43 32.82C19.43 28.84 22.67 26.7 25.67 26.7M35.88 36.13C35.88 37.63 36.29 37.92 37.9 37.92V38.47H31.89V37.92C33.56 37.92 33.94 37.17 33.94 35.7V30.04C33.94 28.92 33.77 28.65 33.1 28.57L31.97 28.43V27.94L35.44 26.73H35.87V29.04C37.95 27.57 39.86 26.73 41.01 26.73C42.43 26.73 43.47 27.62 43.75 29.04C45.69 27.82 47.45 26.73 48.86 26.73C50.94 26.73 51.75 28.32 51.75 31.09C51.75 32.94 51.75 34.87 51.66 36.63C51.66 37.24 52.01 37.93 53.19 37.93H54.11V38.48H47.62V37.93H47.88C48.72 37.93 49.09 37.79 49.35 37.53C49.78 37.1 49.81 35.42 49.81 33.43V31.18C49.81 28.96 49.06 27.89 47.64 27.89C46.75 27.89 45.59 28.32 43.8 29.51V36.15C43.8 37.59 44.15 37.94 45.59 37.94V38.49H39.67V37.94C41.29 37.94 41.86 37.36 41.86 35.72V30.38C41.86 28.56 40.74 27.9 39.73 27.9C38.92 27.9 37.82 28.28 35.86 29.57V36.16L35.88 36.13Z" fill="black"/>
<path d="M56.69 36.21C57.73 37.14 59.03 37.77 60.1 37.77C62.07 37.77 63.51 35.83 63.51 33.47C63.51 29.66 61.26 28.22 59.73 28.22C58.83 28.22 57.74 28.74 56.7 29.63V36.21H56.69ZM56.69 43.31C56.69 44.75 57.41 45.19 58.63 45.19H59.35V45.74H52.54V45.19H52.83C54.3 45.19 54.77 44.7 54.77 43.05V29.77C54.77 29.22 54.65 28.99 53.96 28.82L53.04 28.59V28.04L56.13 26.13H56.71V28.9C58.5 27.54 60.03 26.79 61.19 26.79C63.44 26.79 65.46 29.33 65.46 32.16C65.46 35.66 62.63 38.66 59.34 38.66C58.56 38.66 57.81 38.49 56.71 38.08V43.31H56.69ZM72.4 33.09C71.85 33.4 71.28 33.67 70.7 33.9C68.94 34.62 68.27 34.91 68.27 36.09C68.27 37.13 69.11 37.79 69.97 37.79C70.43 37.79 70.78 37.65 72.4 36.52V33.08V33.09ZM66.68 30.46C66.63 30.33 66.6 30.19 66.59 30.06C66.59 29.05 68.99 26.71 70.87 26.71C71.74 26.71 73.09 27.11 73.9 28.24C74.33 28.85 74.33 29.22 74.33 30.72V34.59C74.33 36.9 74.33 37.42 75.08 37.42C75.4 37.42 75.77 37.39 76.5 36.79L76.64 37.22C75.08 38.49 74.27 38.81 73.78 38.81C72.59 38.81 72.48 37.51 72.45 37.05C70.46 38.7 69.88 38.81 69.1 38.81C67.43 38.81 66.41 37.86 66.41 36.44C66.41 34.68 67.97 34.07 69.82 33.61C70.43 33.47 71.38 33.12 72.39 32.51V30.23C72.39 29.42 72.39 28.96 71.9 28.38C71.53 27.92 70.92 27.54 70.28 27.54C69.33 27.54 68.49 28.35 68.49 28.95C68.49 29.12 68.52 29.24 68.63 29.5L66.67 30.45L66.68 30.46ZM77.89 35.54C78.24 37.27 79.33 38.26 80.63 38.26C81.79 38.26 82.68 37.39 82.68 36.35C82.68 35.74 82.54 35.37 81.76 34.59C79.71 32.54 77.43 32.34 77.43 29.94C77.43 28.03 78.93 26.71 81.13 26.71C81.91 26.71 82.72 26.88 83.44 27.17L83.5 29.8H83.01C82.81 28.32 81.85 27.4 80.7 27.4C79.75 27.4 78.94 28.06 78.94 29.02C78.94 31.56 84.31 32 84.31 35.52C84.31 37.4 82.75 38.81 80.73 38.81C80.3 38.81 79.87 38.75 79.46 38.61C79.14 38.52 78.91 38.44 78.68 38.44C78.51 38.44 78.34 38.55 78.19 38.79H77.76L77.44 35.55H77.9L77.89 35.54ZM86.06 35.54C86.41 37.27 87.5 38.26 88.8 38.26C89.96 38.26 90.85 37.39 90.85 36.35C90.85 35.74 90.71 35.37 89.93 34.59C87.88 32.54 85.6 32.34 85.6 29.94C85.6 28.03 87.1 26.71 89.3 26.71C90.08 26.71 90.89 26.88 91.61 27.17L91.67 29.8H91.18C90.98 28.32 90.03 27.4 88.87 27.4C87.92 27.4 87.11 28.06 87.11 29.02C87.11 31.56 92.48 32 92.48 35.52C92.48 37.4 90.92 38.81 88.9 38.81C88.47 38.81 88.04 38.75 87.63 38.61C87.31 38.52 87.08 38.44 86.85 38.44C86.68 38.44 86.5 38.55 86.36 38.79H85.93L85.61 35.55H86.07L86.06 35.54ZM97.69 36.27C97.69 37.28 98.24 37.92 99.77 37.92V38.47H93.36V37.92C95.12 37.92 95.76 37.34 95.76 35.81V30.01C95.76 28.88 95.61 28.74 94.86 28.59L93.5 28.33V27.87L97.25 26.57H97.68V36.27H97.69ZM106.24 38.12C107.94 38.12 109.88 36.39 109.88 33.5C109.88 30.21 107.86 27.41 105.43 27.41C103.52 27.41 101.76 29.37 101.76 31.86C101.76 35.36 103.76 38.13 106.24 38.13M105.83 26.71C109.35 26.71 112.04 29.34 112.04 32.77C112.04 36.2 109.36 38.8 105.92 38.8C102.48 38.8 99.6 36.2 99.6 32.82C99.6 28.84 102.83 26.7 105.84 26.7M115.92 35.95C115.92 37.54 116.29 37.91 117.85 37.91V38.46H112.05V37.91C113.32 37.91 113.98 37.22 113.98 36.09V30.03C113.98 28.96 113.87 28.76 113.12 28.62L112.13 28.42V27.96L115.45 26.75H115.91V29C117.84 27.79 119.46 26.72 120.88 26.72C122.84 26.72 123.97 28.16 123.97 31.05C123.97 34.89 123.77 35.64 123.74 36.77C123.71 37.55 124.17 37.93 125.36 37.93H126V38.48H119.79V37.93C120.63 37.9 121.12 37.7 121.43 37.38C121.98 36.83 122.04 34.72 122.04 30.89C122.04 28.58 120.92 27.86 119.76 27.86C118.84 27.86 117.42 28.67 115.92 29.71V35.98V35.95ZM24.41 6.30005C26.31 6.39005 27.92 5.07005 28 3.36005C28.08 1.65005 26.6 0.180045 24.7 0.100045C22.8 0.0100454 21.19 1.33005 21.11 3.04005C21.03 4.75005 22.51 6.22005 24.41 6.31005" fill="black"/>
<path d="M33.7 0.11999C33.7 0.11999 31.91 3.27999 27.93 5.54999C23.95 7.80999 20.41 9.12999 17.02 14.36C17.02 14.36 18.03 13.9 17.33 15.02C17.33 15.02 17.85 14.53 18.3 14.38C18.3 14.38 18.57 14.32 18.46 14.65C18.46 14.65 20.24 13.27 19.79 13.94C19.52 14.34 21.21 12.66 21.41 12.83C21.41 12.83 21.47 12.93 21.21 13.31C21.21 13.31 25.24 10.88 26.75 10.24C33.28 7.45999 34.68 2.86999 34.08 0.27999C34.08 0.27999 34.06 -0.24001 33.7 0.10999" fill="black"/>
<path d="M20.09 22.48C20.09 22.48 20.37 15.67 24.61 12.2C28.85 8.72001 32.88 9.36001 34.57 9.24001C34.57 9.24001 38.01 9.34001 39.73 8.76001C39.73 8.76001 39.98 11.8 31.53 13.25C31.53 13.25 28.75 13.21 26.37 16.38C26.37 16.38 24.01 19.03 21.82 24.5C21.82 24.5 21.8 23.71 21.49 24.27L20.68 26.11L20.65 24.38C20.65 24.38 20.5 23.94 20.31 24.55C20.31 24.55 20.15 24.75 20.42 22.45C20.42 22.45 20.35 21.96 20.09 22.5V22.48ZM124.26 22.86H123.45V24.94H123.77V24.05H124.12L124.69 24.94H125.04L124.45 24.02C124.76 23.99 125 23.83 125 23.45C125 23.05 124.77 22.86 124.27 22.86M124.11 23.78H123.77V23.12H124.2C124.42 23.12 124.66 23.16 124.66 23.44C124.66 23.77 124.4 23.78 124.11 23.78Z" fill="black"/>
<path d="M124.83 22.25C124.61 22.16 124.38 22.12 124.15 22.12C123.17 22.15 122.4 22.98 122.43 23.96C122.46 24.9 123.21 25.65 124.15 25.68C124.88 25.68 125.53 25.25 125.8 24.58C125.89 24.36 125.93 24.13 125.93 23.89C125.93 23.17 125.49 22.52 124.83 22.25ZM125.61 23.89C125.61 24.76 124.97 25.42 124.15 25.42C123.32 25.42 122.68 24.76 122.68 23.89C122.68 23.08 123.34 22.42 124.15 22.42C124.96 22.42 125.61 23.08 125.61 23.89Z" fill="black"/>
</g>
<defs>
<clipPath id="clip0_11300_6109">
<rect width="126" height="48" fill="white"/>
</clipPath>
</defs>
</svg>
