<svg width="128" height="32" viewBox="0 0 128 32" fill="none" xmlns="http://www.w3.org/2000/svg">
<g clip-path="url(#clip0_11300_6093)">
<path d="M55.23 2.73304L48.799 2.78104L45.997 2.74904L41.222 30.318L44.358 30.254L51.33 30.365L55.07 29.172C63.459 26.513 67.088 20.353 67.088 13.811C67.024 7.28504 62.313 2.68504 55.23 2.73304ZM53.224 28.535L46.093 28.551L50.311 4.10204L53.988 4.08604C58.588 4.08604 61.405 7.69904 61.405 13.923C61.39 20.465 58.365 26.052 53.224 28.535Z" fill="black"/>
<path d="M92.4129 11.249L88.4489 13.573L91.6639 17.265L84.2789 27.851L84.4859 26.752L84.2789 11.71L79.4879 13.286L79.7419 19.462C79.7579 19.892 79.6309 20.306 79.3919 20.656L74.3779 27.723L74.521 26.625L74.3779 12.474L73.0889 11.249L69.4919 12.633L70.0799 29.347L74.2509 30.159L80.0609 21.818L79.8539 23.123L80.0609 29.347L84.2309 30.159L93.3199 17.441L94.0679 12.856L92.4129 11.249Z" fill="black"/>
<path d="M106.086 11.312L102.122 12.809C96.79 14.591 94.052 18.618 94.052 23.059C94.052 27.23 97.124 29.761 100.546 30.238L103.412 28.599C105.465 27.58 107.582 26.338 109.078 25.383L108.537 24.572C107.168 25.32 104.701 26.625 103.412 27.166C101.024 26.275 99.177 24.301 98.827 21.563V21.42L109.285 18.555C109.906 17.329 110.033 16.581 110.033 15.546C110.049 13.095 108.33 11.726 106.086 11.312ZM105.194 16.438C105.131 17.329 104.987 18.014 104.573 18.889C104.573 18.889 98.636 20.735 98.7 20.672C98.7 20.529 98.843 20.337 98.843 20.194C98.986 16.979 100.562 14.321 103.157 12.952C104.367 13.366 105.258 14.671 105.194 16.438Z" fill="black"/>
<path d="M118.724 2.828L115.35 3.831L111.1 29.012L114.219 30.302L115.334 29.506L119.775 3.72L118.724 2.828Z" fill="black"/>
<path d="M126.603 2.828L123.229 3.831L118.995 29.012L122.099 30.302L123.229 29.506L127.654 3.72L126.603 2.828Z" fill="black"/>
<path d="M3.54595 6.63306L2.01795 7.26906L0.345947 16.4381L0.918947 16.9311L2.41595 16.3101L4.08695 7.09406L3.54595 6.63306Z" fill="black"/>
<path d="M4.11902 19L5.61502 18.38L7.95502 5.50202L7.41402 5.02502L5.88602 5.66202L3.54602 18.507L4.11902 19Z" fill="black"/>
<path d="M10.215 24.906L11.711 24.285L15.213 5.04098L14.672 4.57898L13.128 5.19998L9.64197 24.412L10.215 24.906Z" fill="black"/>
<path d="M11.536 2.07996L10.008 2.71696L5.77405 26.004L6.34705 26.498L7.84305 25.877L12.077 2.54196L11.536 2.07996Z" fill="black"/>
<path d="M22.074 3.22595L20.545 3.84695L16.646 25.336L17.219 25.845L18.699 25.272L22.615 3.70395L22.074 3.22595Z" fill="black"/>
<path d="M31.974 7.98596L30.414 8.60596L28.998 16.438L29.602 16.963L31.051 16.438L32.499 8.43096L31.974 7.98596Z" fill="black"/>
<path d="M29.396 2.30298L27.867 2.92398L25.13 18.045L25.735 18.571L27.167 18.045L29.953 2.78098L29.396 2.30298Z" fill="black"/>
<path d="M17.855 6.64905L16.343 7.26905L11.95 31.48L12.523 31.973L14.019 31.352L18.413 7.12605L17.855 6.64905Z" fill="black"/>
<path d="M26.244 0.0269775L24.7 0.663978L20.88 21.675L21.485 22.2L22.933 21.69L26.769 0.487978L26.244 0.0269775Z" fill="black"/>
</g>
<defs>
<clipPath id="clip0_11300_6093">
<rect width="128" height="32" fill="white"/>
</clipPath>
</defs>
</svg>
