<svg width="148" height="24" viewBox="0 0 148 24" fill="none" xmlns="http://www.w3.org/2000/svg">
<path d="M142.637 22.141C142.854 22.141 143.046 22.1192 143.046 21.8607C143.046 21.6455 142.837 21.62 142.662 21.62H142.313V22.141H142.637ZM142.313 23.152H142.023V21.3704H142.692C143.119 21.3704 143.335 21.5211 143.335 21.8828C143.335 22.2055 143.14 22.3388 142.876 22.3688L143.37 23.152H143.042L142.586 22.3903H142.313V23.152ZM142.628 20.9012C141.938 20.9012 141.401 21.4478 141.401 22.231C141.401 22.9627 141.869 23.5611 142.628 23.5611C143.31 23.5611 143.847 23.0187 143.847 22.231C143.847 21.4478 143.31 20.9012 142.628 20.9012ZM142.628 23.841C141.712 23.841 141.06 23.1479 141.06 22.231C141.06 21.2629 141.785 20.6212 142.628 20.6212C143.464 20.6212 144.188 21.2629 144.188 22.231C144.188 23.1997 143.464 23.841 142.628 23.841ZM146.95 0.0579595H144.652C144.116 0.0579595 143.545 0.373605 143.222 0.918619L136.849 10.6813L130.477 0.918619C130.154 0.373605 129.582 0.0579595 129.046 0.0579595H126.749C126.008 0.0579595 125.319 0.71254 125.941 1.79666L134.705 15.0992V22.2844C134.705 22.849 135.16 23.3106 135.72 23.3106H137.979C138.538 23.3106 138.993 22.849 138.993 22.2844V15.0992L147.758 1.79692C148.38 0.712629 147.69 0.0579595 146.95 0.0579595ZM122.913 19.6807H109.637L109.631 13.008L121.318 13.0064C121.876 13.0064 122.334 12.5473 122.334 11.9821V10.4031C122.334 9.83627 121.876 9.37682 121.318 9.37682L109.637 9.3718V3.68788L122.606 3.68824C123.166 3.68824 123.623 3.22915 123.623 2.66402V1.08491C123.623 0.518019 123.166 0.0586653 122.606 0.0586653L106.361 0.0561069C105.8 0.0561069 105.346 0.517754 105.346 1.08235V22.2769C105.346 22.8414 105.8 23.3125 106.361 23.3125L122.913 23.3097C123.473 23.3097 123.929 22.8478 123.929 22.2826V20.707C123.929 20.1402 123.473 19.6807 122.913 19.6807ZM102.465 21.5577C102.797 22.0521 102.887 22.5039 102.717 22.8268C102.55 23.1472 102.157 23.3115 101.554 23.3115H99.257C98.8671 23.3115 98.4571 22.9813 98.0042 22.3033L90.3237 10.9807L84.6583 16.5967V22.2809C84.6583 22.9412 84.0848 23.3115 83.6494 23.3115H81.3894C80.829 23.3115 80.3709 22.8502 80.3709 22.2847V1.07935C80.3709 0.544749 80.7704 0.058577 81.4244 0.058577H83.6468C84.2055 0.058577 84.6575 0.520136 84.6575 1.08473L84.6583 11.1909C84.6583 11.1909 94.2326 1.69768 94.8961 1.04309C95.558 0.389661 95.8832 0.058577 96.6045 0.058577H99.48C99.7694 0.058577 100.006 0.199462 100.111 0.43924C100.26 0.774822 100.121 1.21777 99.7326 1.65224L93.3775 7.95272L102.465 21.5577ZM76.4471 14.6834H74.07C73.75 14.6834 73.4108 14.824 73.2324 15.1067C73.2044 15.1378 73.1555 15.2363 73.1458 15.2609C71.8082 18.4554 68.8357 20.3605 65.273 20.3605C60.4334 20.3605 56.7853 16.7543 56.7853 11.9726C56.7857 7.19024 60.4334 3.58573 65.273 3.58573C68.5095 3.58573 71.2705 5.15822 72.7725 7.90261C72.9247 8.16056 73.2193 8.3871 73.7054 8.3871H76.0423C76.5756 8.3871 77.011 7.94998 77.011 7.41405C77.011 7.16131 76.9184 6.99854 76.9184 6.99854C74.8358 2.74686 70.266 0 65.2756 0C58.212 0 52.4645 5.38476 52.4645 12.0015C52.4645 18.6189 58.212 23.9998 65.2756 23.9998C70.6664 24.0002 75.5108 20.8082 77.3258 16.0727C77.3293 16.0671 77.4193 15.9052 77.4193 15.658C77.4193 15.119 76.9831 14.6834 76.4471 14.6834ZM45.6916 11.9723C45.6916 7.19033 41.8834 3.29681 37.2012 3.29681C32.519 3.29681 28.7109 7.19007 28.7109 11.9723C28.7109 16.7571 32.519 20.6503 37.201 20.6503C41.8834 20.6503 45.6916 16.7574 45.6916 11.9723ZM50.0162 12.0012C50.0162 18.6189 44.269 23.9999 37.201 23.9999C30.1375 23.9999 24.3897 18.6186 24.3897 12.0012C24.39 5.38485 30.1375 -0.000176485 37.2012 8.817e-05C44.269 8.817e-05 50.0162 5.38485 50.0162 12.0012ZM20.7836 0.672489H18.5553C18.0009 0.672489 17.5515 1.12223 17.5515 1.67236V12.7909C17.5515 17.6381 15.0809 20.3062 10.7671 20.3062C6.7426 20.3062 3.97753 18.0873 3.97753 14.7278C3.97753 14.0656 3.4666 13.8372 3.09424 13.8372H1.00595C0.450254 13.8372 0 14.2855 0 14.8408V15.2413C0 20.2782 4.62432 24 10.7012 24C17.4399 24 21.7853 20.0144 21.7853 12.6979L21.7855 1.67236C21.7855 1.12223 21.3365 0.672489 20.7836 0.672489Z" fill="black"/>
</svg>
